<svg xmlns="http://www.w3.org/2000/svg" width="46.064" height="58.028" viewBox="0 0 46.064 58.028">
  <g id="그룹_12860" data-name="그룹 12860" transform="translate(-881.457 -2563.324)">
    <g id="그룹_12855" data-name="그룹 12855" transform="translate(881.601 2575.576)">
      <path id="패스_41395" data-name="패스 41395" d="M497.341,580.6A22.888,22.888,0,1,1,520.23,557.71,22.914,22.914,0,0,1,497.341,580.6Zm0-40.439a17.551,17.551,0,1,0,17.551,17.551A17.571,17.571,0,0,0,497.341,540.159Z" transform="translate(-474.453 -534.822)" fill="#02263e"/>
    </g>
    <g id="그룹_12856" data-name="그룹 12856" transform="translate(916.971 2575.736)">
      <rect id="사각형_49513" data-name="사각형 49513" width="6.275" height="8.646" transform="translate(6.113 0) rotate(45)" fill="#02263e"/>
    </g>
    <g id="그룹_12857" data-name="그룹 12857" transform="translate(881.457 2575.736)">
      <rect id="사각형_49514" data-name="사각형 49514" width="6.275" height="8.646" transform="translate(10.551 6.113) rotate(135)" fill="#02263e"/>
    </g>
    <g id="그룹_12858" data-name="그룹 12858" transform="translate(901.84 2571.555)">
      <rect id="사각형_49515" data-name="사각형 49515" width="5.299" height="5.012" fill="#02263e"/>
    </g>
    <g id="그룹_12859" data-name="그룹 12859" transform="translate(898.354 2563.324)">
      <rect id="사각형_49516" data-name="사각형 49516" width="12.271" height="6.136" fill="#02263e"/>
    </g>
    <path id="패스_41396" data-name="패스 41396" d="M580.014,626.83v13.551H566.463a13.551,13.551,0,1,0,13.551-13.551Z" transform="translate(324.475 1958.084)" fill="#02263e"/>
  </g>
</svg>
