<svg xmlns="http://www.w3.org/2000/svg" width="63.995" height="57.103" viewBox="0 0 63.995 57.103">
  <g id="그룹_12848" data-name="그룹 12848" transform="translate(-280 -2575)">
    <g id="그룹_12844" data-name="그룹 12844" transform="translate(280 2575)">
      <path id="패스_41392" data-name="패스 41392" d="M326.726,184a21.061,21.061,0,0,1,26.3,0l7.782-7.782a32.025,32.025,0,0,0-41.861,0Z" transform="translate(-307.877 -168.433)" fill="#02263e"/>
      <path id="패스_41393" data-name="패스 41393" d="M374.687,182.72,366.9,190.5a21.026,21.026,0,0,1,4.47,10.766h11.009A31.95,31.95,0,0,0,374.687,182.72Z" transform="translate(-318.389 -171.565)" fill="#02263e"/>
      <path id="패스_41394" data-name="패스 41394" d="M304.77,201.268h11.009a21.026,21.026,0,0,1,4.47-10.766l-7.782-7.782A31.95,31.95,0,0,0,304.77,201.268Z" transform="translate(-304.77 -171.565)" fill="#02263e"/>
    </g>
    <rect id="사각형_49509" data-name="사각형 49509" width="7.79" height="13.763" transform="translate(322.849 2618.34)" fill="#02263e"/>
    <rect id="사각형_49510" data-name="사각형 49510" width="7.789" height="13.763" transform="translate(308.117 2618.34)" fill="#02263e"/>
    <rect id="사각형_49511" data-name="사각형 49511" width="7.79" height="13.763" transform="translate(293.386 2618.34)" fill="#02263e"/>
    <path id="패스_40919" data-name="패스 40919" d="M917.2,963.63c-.016-.1-.035-.2-.056-.3l4.106-10.318a.606.606,0,0,0-.927-.709l-8.86,6.659c-.189.01-.379.029-.568.059a5.522,5.522,0,1,0,6.306,4.608Zm0,0" transform="translate(-601.761 1642.813)" fill="#02263e"/>
  </g>
</svg>
