<svg xmlns="http://www.w3.org/2000/svg" width="61.726" height="59.605" viewBox="0 0 61.726 59.605">
  <g id="그룹_12873" data-name="그룹 12873" transform="translate(-276.379 -3215.001)">
    <path id="패스_41397" data-name="패스 41397" d="M115.354,391.213l-2.187-3.394,3.261-3.537a29.181,29.181,0,0,0-10-6.931l-2.165,4.3-3.946-.854-3.946-.854-.2-4.82a28.837,28.837,0,0,0-11.978,2.173l1.512,4.584-3.394,2.187-3.394,2.187-3.537-3.261a29.187,29.187,0,0,0-6.931,10l4.3,2.166-.854,3.946-.854,3.947-4.82.2a28.842,28.842,0,0,0,2.173,11.978l4.584-1.513,2.187,3.394L77.35,420.5,74.09,424.04a29.188,29.188,0,0,0,10,6.931l2.166-4.3,3.946.854,3.946.854.2,4.82a28.842,28.842,0,0,0,11.978-2.173l-1.513-4.583,3.394-2.187,3.394-2.187,3.537,3.261a29.181,29.181,0,0,0,6.931-10l-4.3-2.165.854-3.946.854-3.946,4.82-.2a28.842,28.842,0,0,0-2.173-11.978l-4.583,1.513Z" transform="translate(213.794 2839.893)" fill="#02263e"/>
    <g id="패스_41398" data-name="패스 41398" transform="translate(184.953 2850.08)" fill="#02263e">
      <path d="M 109.2680511474609 423.7756042480469 L 108.5180511474609 423.7756042480469 L 99.09938812255859 423.7756042480469 L 98.34938812255859 423.7756042480469 L 98.34938812255859 423.0256042480469 L 98.34938812255859 411.3488464355469 L 95.04714965820312 411.3488464355469 L 93.23648834228516 411.3488464355469 L 94.51682281494141 410.0685119628906 L 103.2784194946289 401.3069458007812 L 103.8087539672852 400.776611328125 L 104.3390808105469 401.3069458007812 L 113.1006393432617 410.0685119628906 L 114.380973815918 411.3488464355469 L 112.5703125 411.3488464355469 L 109.2680511474609 411.3488464355469 L 109.2680511474609 423.0256042480469 L 109.2680511474609 423.7756042480469 Z" stroke="none"/>
      <path d="M 103.8087539672852 401.8372802734375 L 95.04714965820312 410.5988464355469 L 99.09938812255859 410.5988464355469 L 99.09938812255859 423.0256042480469 L 108.5180511474609 423.0256042480469 L 108.5180511474609 410.5988464355469 L 112.5703125 410.5988464355469 L 103.8087539672852 401.8372802734375 M 103.8087539672852 399.7159423828125 L 116.1916275024414 412.0988464355469 L 110.0180511474609 412.0988464355469 L 110.0180511474609 424.5256042480469 L 97.59938812255859 424.5256042480469 L 97.59938812255859 412.0988464355469 L 91.42581939697266 412.0988464355469 L 103.8087539672852 399.7159423828125 Z" stroke="none" fill="#fff"/>
    </g>
    <circle id="타원_600" data-name="타원 600" cx="14" cy="14" r="14" transform="translate(295 3230)" fill="#fff"/>
  </g>
</svg>
