<svg id="그룹_12872" data-name="그룹 12872" xmlns="http://www.w3.org/2000/svg" width="57.725" height="58.012" viewBox="0 0 57.725 58.012">
  <path id="패스_41401" data-name="패스 41401" d="M481.17,449.368l-7.212,1.02a25.973,25.973,0,0,1-.016-10.448l7.216,1,1.2-2.9,1.2-2.9-5.822-4.379a25.975,25.975,0,0,1,7.376-7.4l4.4,5.808,2.9-1.206,2.9-1.206-1.02-7.212a25.974,25.974,0,0,1,10.447-.016l-1,7.216,2.9,1.2,2.9,1.2,4.379-5.822a25.975,25.975,0,0,1,7.4,7.376l-5.808,4.4,1.206,2.9,1.206,2.9,7.212-1.02a25.973,25.973,0,0,1,.016,10.447l-7.216-1-1.2,2.9-.863,2.093-.628-.616-4.011-4.046a12.586,12.586,0,1,0-7.31,7.219l4.176,3.943.61.644-2.022.841-2.9,1.206,1.02,7.212a25.973,25.973,0,0,1-10.447.016l1-7.216-2.9-1.2-2.9-1.2-4.379,5.822a25.975,25.975,0,0,1-7.4-7.376l5.808-4.4-1.206-2.9Z" transform="translate(-473.419 -419)" fill="#02263e"/>
  <path id="패스_41402" data-name="패스 41402" d="M429.954,606.6a9.687,9.687,0,0,1-1.158.06c-1.589,0-4.465-.3-6.376-2.289a7.27,7.27,0,0,1-1.91-6.367l4.826,4.8,2.759-2.7-.026-.025,2.843-2.9L426,592.459a6.259,6.259,0,0,1,1.472-.156,7.2,7.2,0,0,1,4.939,1.914c2.93,2.689,2.408,7.478,2.408,7.478l5.039,5.083,3.557,3.589,6.251,6.125,1.531,1.5s.331-.036.867-.036c1.5,0,4.628.284,6.611,2.444a7.272,7.272,0,0,1,1.757,6.411l-4.71-4.912-2.9,2.842-.026-.026-2.7,2.76,4.8,4.826a6.053,6.053,0,0,1-1.3.123,7.212,7.212,0,0,1-5.07-2.033c-2.865-2.759-2.228-7.534-2.228-7.534l-1.471-1.552-6.018-6.352-3.687-3.481Z" transform="translate(-402.865 -574.414)" fill="#02263e"/>
</svg>
