<svg id="그룹_8049" data-name="그룹 8049" xmlns="http://www.w3.org/2000/svg" width="58" height="58.932" viewBox="0 0 58 58.932">
  <path id="패스_18280" data-name="패스 18280" d="M1494.156,899.55c-6.2,7.361-14.721,8.116-19.639,10.947a16.276,16.276,0,0,0-4.318,3.473c-7.68-4.055-20.318-5.489-29.59-16.5,0,0-9.349,22.071,6.732,35.512,11.674,9.753,23.043,8.329,23.043,8.329s6.188-9.858-21.285-27.295c0,0,10.94,3.188,18.693,9.593a26.266,26.266,0,0,1,4.3,4.412,16.809,16.809,0,0,1,2.528,4.679,13.713,13.713,0,0,1,.611,2.614c.514,3.9-.65,8.336-4.456,13.313a46.033,46.033,0,0,1-7.329,7.774,31.013,31.013,0,0,0,9.158-6.123c5.136-5.233,10.553-14.436,8.718-23.105a23.628,23.628,0,0,0,8.475-4.615C1500.214,913.85,1494.156,899.55,1494.156,899.55Zm-16.727,20a21.429,21.429,0,0,0-2.042-2.034c5.006-4.839,13.268-7.246,13.268-7.246C1482.965,913.882,1479.505,916.991,1477.429,919.551Z" transform="translate(-1437.907 -897.471)" fill="#02263e"/>
</svg>
